<?xml version="1.0" encoding="UTF-8" standalone="no"?>
<!DOCTYPE svg PUBLIC "-//W3C//DTD SVG 1.1//EN"
 "http://www.w3.org/Graphics/SVG/1.1/DTD/svg11.dtd">
<!-- Generated by graphviz version 14.1.1 (20251213.1925)
 -->
<!-- Title: G Pages: 1 -->
<svg width="362pt" height="297pt"
 viewBox="0.00 0.00 362.00 297.00" xmlns="http://www.w3.org/2000/svg" xmlns:xlink="http://www.w3.org/1999/xlink">
<g id="graph0" class="graph" transform="scale(1 1) rotate(0) translate(4 293)">
<title>G</title><style>.edge>path:hover{stroke-width:8}</style>
<polygon fill="white" stroke="none" points="-4,4 -4,-293 357.5,-293 357.5,4 -4,4"/>
<!-- click -->
<g id="node1" class="node">
<title>click</title><style>.edge>path:hover{stroke-width:8}</style>
<polygon fill="#b6a853" stroke="black" points="206.5,-145 203.5,-149 182.5,-149 179.5,-145 152.5,-145 152.5,-109 206.5,-109 206.5,-145"/>
<text xml:space="preserve" text-anchor="middle" x="179.5" y="-123.12" font-family="Helvetica,sans-Serif" font-size="10.00" fill="#000000">click</text>
</g>
<!-- video_converter -->
<g id="node7" class="node">
<title>video_converter</title><style>.edge>path:hover{stroke-width:8}</style>
<polygon fill="#6b2e62" stroke="black" points="277,-36 274,-40 253,-40 250,-36 192,-36 192,0 277,0 277,-36"/>
<text xml:space="preserve" text-anchor="middle" x="234.5" y="-14.12" font-family="Helvetica,sans-Serif" font-size="10.00" fill="#ffffff">video_converter</text>
</g>
<!-- click&#45;&gt;video_converter -->
<g id="edge1" class="edge">
<title>click&#45;&gt;video_converter</title><style>.edge>path:hover{stroke-width:8}</style>
<path fill="none" stroke="black" d="M234.5,-72C236.34,-64.27 236.94,-55.73 236.92,-47.8"/>
<polygon fill="#b6a853" stroke="black" points="240.43,-47.8 236.57,-37.93 233.43,-48.05 240.43,-47.8"/>
<path fill="none" stroke="black" d="M206.76,-109.9C218.71,-100.88 230.85,-88.35 234.5,-73"/>
</g>
<!-- osxphotos -->
<g id="node2" class="node">
<title>osxphotos</title><style>.edge>path:hover{stroke-width:8}</style>
<polygon fill="#70b653" stroke="black" points="61,-217 58,-221 37,-221 34,-217 0,-217 0,-181 61,-181 61,-217"/>
<text xml:space="preserve" text-anchor="middle" x="30.5" y="-195.12" font-family="Helvetica,sans-Serif" font-size="10.00" fill="#000000">osxphotos</text>
</g>
<!-- osxphotos&#45;&gt;video_converter -->
<g id="edge2" class="edge">
<title>osxphotos&#45;&gt;video_converter</title><style>.edge>path:hover{stroke-width:8}</style>
<path fill="none" stroke="black" d="M234.5,-126C241.33,-103.46 229.05,-95.92 234.5,-73"/>
<path fill="none" stroke="black" d="M61.32,-184.33C64.4,-183.14 67.49,-182 70.5,-181 143.15,-156.71 212.3,-201.31 234.5,-128"/>
</g>
<!-- pydantic -->
<g id="node3" class="node">
<title>pydantic</title><style>.edge>path:hover{stroke-width:8}</style>
<polygon fill="#40c089" stroke="black" points="133.5,-217 130.5,-221 109.5,-221 106.5,-217 79.5,-217 79.5,-181 133.5,-181 133.5,-217"/>
<text xml:space="preserve" text-anchor="middle" x="106.5" y="-195.12" font-family="Helvetica,sans-Serif" font-size="10.00" fill="#000000">pydantic</text>
</g>
<!-- pydantic&#45;&gt;video_converter -->
<g id="edge3" class="edge">
<title>pydantic&#45;&gt;video_converter</title><style>.edge>path:hover{stroke-width:8}</style>
<path fill="none" stroke="black" d="M133.88,-184.92C164.94,-170.05 211.79,-147.49 215.5,-145 224.91,-138.68 231.22,-138.84 234.5,-128"/>
</g>
<!-- pydantic_settings -->
<g id="node4" class="node">
<title>pydantic_settings</title><style>.edge>path:hover{stroke-width:8}</style>
<polygon fill="#4c87b3" stroke="black" points="243.75,-217 240.75,-221 219.75,-221 216.75,-217 151.25,-217 151.25,-181 243.75,-181 243.75,-217"/>
<text xml:space="preserve" text-anchor="middle" x="197.5" y="-195.12" font-family="Helvetica,sans-Serif" font-size="10.00" fill="#ffffff">pydantic_settings</text>
</g>
<!-- pydantic_settings&#45;&gt;video_converter -->
<g id="edge4" class="edge">
<title>pydantic_settings&#45;&gt;video_converter</title><style>.edge>path:hover{stroke-width:8}</style>
<path fill="none" stroke="black" d="M209.08,-180.69C217.62,-167 228.72,-147.08 234.5,-128"/>
</g>
<!-- PySide6 -->
<g id="node5" class="node">
<title>PySide6</title><style>.edge>path:hover{stroke-width:8}</style>
<polygon fill="#f90606" stroke="black" points="298.5,-289 295.5,-293 274.5,-293 271.5,-289 244.5,-289 244.5,-253 298.5,-253 298.5,-289"/>
<text xml:space="preserve" text-anchor="middle" x="271.5" y="-267.12" font-family="Helvetica,sans-Serif" font-size="10.00" fill="#ffffff">PySide6</text>
</g>
<!-- PySide6&#45;&gt;video_converter -->
<g id="edge5" class="edge">
<title>PySide6&#45;&gt;video_converter</title><style>.edge>path:hover{stroke-width:8}</style>
<path fill="none" stroke="black" d="M268.45,-252.79C265.1,-234.76 259.3,-205.68 252.5,-181 245.89,-157.02 227.29,-151.81 234.5,-128"/>
</g>
<!-- rich -->
<g id="node6" class="node">
<title>rich</title><style>.edge>path:hover{stroke-width:8}</style>
<polygon fill="blue" stroke="black" points="353.5,-217 350.5,-221 329.5,-221 326.5,-217 299.5,-217 299.5,-181 353.5,-181 353.5,-217"/>
<text xml:space="preserve" text-anchor="middle" x="326.5" y="-195.12" font-family="Helvetica,sans-Serif" font-size="10.00" fill="white">rich</text>
</g>
<!-- rich&#45;&gt;video_converter -->
<g id="edge6" class="edge">
<title>rich&#45;&gt;video_converter</title><style>.edge>path:hover{stroke-width:8}</style>
<path fill="none" stroke="black" d="M299.11,-184.32C270.27,-168.94 229.64,-144.04 234.5,-128"/>
</g>
</g>
</svg>
